<mxfile host="app.diagrams.net" modified="2022-06-24T13:05:06.027Z" agent="5.0 (Macintosh; Intel Mac OS X 10_15_7) AppleWebKit/537.36 (KHTML, like Gecko) Chrome/102.0.0.0 Safari/537.36" etag="AUk5U-RJOubo6R7KnHle" version="20.0.3" type="github">
  <diagram id="cpief6jwK4xfDQ4jVrvY" name="Page-1">
    <mxGraphModel dx="1665" dy="910" grid="1" gridSize="10" guides="1" tooltips="1" connect="1" arrows="1" fold="1" page="1" pageScale="1" pageWidth="850" pageHeight="1100" math="0" shadow="0">
      <root>
        <mxCell id="0" />
        <mxCell id="1" parent="0" />
        <mxCell id="SU34hy9HO2EqzW-YyRAt-1" value="&lt;font style=&quot;font-size: 15px;&quot;&gt;CollectBallState&lt;/font&gt;" style="whiteSpace=wrap;html=1;fillColor=#A8DADC;strokeColor=#457B9D;fontColor=#1D3557;rounded=1;" vertex="1" parent="1">
          <mxGeometry x="100" y="430" width="120" height="60" as="geometry" />
        </mxCell>
        <mxCell id="SU34hy9HO2EqzW-YyRAt-2" value="&lt;font style=&quot;font-size: 15px;&quot;&gt;GoToThrowSpot&lt;/font&gt;" style="whiteSpace=wrap;html=1;fillColor=#A8DADC;strokeColor=#457B9D;fontColor=#1D3557;rounded=1;" vertex="1" parent="1">
          <mxGeometry x="620" y="430" width="120" height="60" as="geometry" />
        </mxCell>
        <mxCell id="SU34hy9HO2EqzW-YyRAt-3" value="&lt;font style=&quot;font-size: 16px;&quot;&gt;DefenseDemo&lt;/font&gt;" style="whiteSpace=wrap;html=1;fillColor=#A8DADC;strokeColor=#457B9D;fontColor=#1D3557;rounded=1;" vertex="1" parent="1">
          <mxGeometry x="380" y="430" width="120" height="60" as="geometry" />
        </mxCell>
        <mxCell id="SU34hy9HO2EqzW-YyRAt-4" value="Throw Ball" style="whiteSpace=wrap;html=1;fontSize=15;fillColor=#A8DADC;strokeColor=#457B9D;fontColor=#1D3557;rounded=1;" vertex="1" parent="1">
          <mxGeometry x="380" y="590" width="120" height="60" as="geometry" />
        </mxCell>
        <mxCell id="SU34hy9HO2EqzW-YyRAt-5" value="Rescue" style="whiteSpace=wrap;html=1;fontSize=15;fillColor=#A8DADC;strokeColor=#457B9D;fontColor=#1D3557;rounded=1;" vertex="1" parent="1">
          <mxGeometry x="620" y="590" width="120" height="60" as="geometry" />
        </mxCell>
        <mxCell id="SU34hy9HO2EqzW-YyRAt-6" value="&lt;font style=&quot;font-size: 15px;&quot;&gt;GoToPrison&lt;/font&gt;" style="whiteSpace=wrap;html=1;fillColor=#A8DADC;strokeColor=#457B9D;fontColor=#1D3557;rounded=1;" vertex="1" parent="1">
          <mxGeometry x="270" y="130" width="120" height="60" as="geometry" />
        </mxCell>
        <mxCell id="SU34hy9HO2EqzW-YyRAt-7" value="&lt;font style=&quot;font-size: 15px;&quot;&gt;LeavePrison&lt;/font&gt;" style="whiteSpace=wrap;html=1;fillColor=#A8DADC;strokeColor=#457B9D;fontColor=#1D3557;rounded=1;" vertex="1" parent="1">
          <mxGeometry x="517.5" y="130" width="120" height="60" as="geometry" />
        </mxCell>
        <mxCell id="SU34hy9HO2EqzW-YyRAt-8" value="&lt;font style=&quot;font-size: 15px;&quot;&gt;GoHome&lt;/font&gt;" style="whiteSpace=wrap;html=1;fillColor=#A8DADC;strokeColor=#457B9D;fontColor=#1D3557;rounded=1;" vertex="1" parent="1">
          <mxGeometry x="517.5" y="240" width="120" height="60" as="geometry" />
        </mxCell>
        <mxCell id="SU34hy9HO2EqzW-YyRAt-9" value="&lt;font style=&quot;font-size: 15px;&quot;&gt;RestState&lt;/font&gt;" style="whiteSpace=wrap;html=1;fillColor=#A8DADC;strokeColor=#457B9D;fontColor=#1D3557;rounded=1;" vertex="1" parent="1">
          <mxGeometry x="320" y="210" width="120" height="60" as="geometry" />
        </mxCell>
        <mxCell id="SU34hy9HO2EqzW-YyRAt-10" value="&lt;font style=&quot;font-size: 15px;&quot;&gt;Wild Card&lt;/font&gt;" style="whiteSpace=wrap;html=1;fillColor=#dae8fc;strokeColor=#6c8ebf;rounded=1;" vertex="1" parent="1">
          <mxGeometry x="100" y="210" width="120" height="60" as="geometry" />
        </mxCell>
        <mxCell id="SU34hy9HO2EqzW-YyRAt-11" value="&lt;b&gt;&lt;font color=&quot;#666666&quot;&gt;Minion(hasBall)&lt;/font&gt;&lt;/b&gt;" style="html=1;verticalAlign=bottom;startArrow=oval;startFill=1;endArrow=block;startSize=8;fillColor=#1ba1e2;strokeColor=#006EAF;strokeWidth=3;exitX=0.75;exitY=0;exitDx=0;exitDy=0;entryX=0.25;entryY=0;entryDx=0;entryDy=0;" edge="1" parent="1" source="SU34hy9HO2EqzW-YyRAt-1" target="SU34hy9HO2EqzW-YyRAt-2">
          <mxGeometry x="-0.6296" width="60" relative="1" as="geometry">
            <mxPoint x="320" y="420" as="sourcePoint" />
            <mxPoint x="640" y="420" as="targetPoint" />
            <Array as="points">
              <mxPoint x="190" y="390" />
              <mxPoint x="470" y="390" />
              <mxPoint x="650" y="390" />
            </Array>
            <mxPoint as="offset" />
          </mxGeometry>
        </mxCell>
        <mxCell id="SU34hy9HO2EqzW-YyRAt-12" value="&lt;b&gt;&lt;font color=&quot;#666666&quot;&gt;Minion(~hasBall)&lt;/font&gt;&lt;/b&gt;" style="html=1;verticalAlign=bottom;startArrow=oval;startFill=1;endArrow=block;startSize=8;fillColor=#1ba1e2;strokeColor=#006EAF;strokeWidth=3;exitX=1;exitY=0.5;exitDx=0;exitDy=0;entryX=0;entryY=0.5;entryDx=0;entryDy=0;" edge="1" parent="1" source="SU34hy9HO2EqzW-YyRAt-1" target="SU34hy9HO2EqzW-YyRAt-3">
          <mxGeometry x="-0.1111" width="60" relative="1" as="geometry">
            <mxPoint x="340" y="460" as="sourcePoint" />
            <mxPoint x="660" y="460" as="targetPoint" />
            <Array as="points" />
            <mxPoint as="offset" />
          </mxGeometry>
        </mxCell>
        <mxCell id="SU34hy9HO2EqzW-YyRAt-13" value="&lt;b&gt;&lt;font color=&quot;#666666&quot;&gt;Minion(~hasBall)&lt;/font&gt;&lt;/b&gt;" style="html=1;verticalAlign=bottom;startArrow=oval;startFill=1;endArrow=block;startSize=8;fillColor=#1ba1e2;strokeColor=#006EAF;strokeWidth=3;exitX=0.5;exitY=0;exitDx=0;exitDy=0;entryX=0.5;entryY=0;entryDx=0;entryDy=0;" edge="1" parent="1" source="SU34hy9HO2EqzW-YyRAt-2" target="SU34hy9HO2EqzW-YyRAt-1">
          <mxGeometry x="-0.6364" width="60" relative="1" as="geometry">
            <mxPoint x="260" y="440" as="sourcePoint" />
            <mxPoint x="640" y="440" as="targetPoint" />
            <Array as="points">
              <mxPoint x="680" y="360" />
              <mxPoint x="160" y="360" />
            </Array>
            <mxPoint as="offset" />
          </mxGeometry>
        </mxCell>
        <mxCell id="SU34hy9HO2EqzW-YyRAt-14" value="&lt;b&gt;&lt;font color=&quot;#666666&quot;&gt;TeamMate(Rescuable)&lt;/font&gt;&lt;/b&gt;" style="html=1;verticalAlign=bottom;startArrow=oval;startFill=1;endArrow=block;startSize=8;fillColor=#1ba1e2;strokeColor=#006EAF;strokeWidth=3;entryX=0.75;entryY=0;entryDx=0;entryDy=0;exitX=0.75;exitY=1;exitDx=0;exitDy=0;" edge="1" parent="1" source="SU34hy9HO2EqzW-YyRAt-2" target="SU34hy9HO2EqzW-YyRAt-5">
          <mxGeometry y="10" width="60" relative="1" as="geometry">
            <mxPoint x="690" y="490" as="sourcePoint" />
            <mxPoint x="460" y="890" as="targetPoint" />
            <Array as="points" />
            <mxPoint as="offset" />
          </mxGeometry>
        </mxCell>
        <mxCell id="SU34hy9HO2EqzW-YyRAt-15" value="&lt;b&gt;&lt;font color=&quot;#666666&quot;&gt;TeamMate(~Rescuable)&lt;/font&gt;&lt;/b&gt;" style="html=1;verticalAlign=bottom;startArrow=oval;startFill=1;endArrow=block;startSize=8;fillColor=#1ba1e2;strokeColor=#006EAF;strokeWidth=3;entryX=0.75;entryY=0;entryDx=0;entryDy=0;exitX=0.25;exitY=1;exitDx=0;exitDy=0;" edge="1" parent="1" source="SU34hy9HO2EqzW-YyRAt-2" target="SU34hy9HO2EqzW-YyRAt-4">
          <mxGeometry width="60" relative="1" as="geometry">
            <mxPoint x="610" y="510" as="sourcePoint" />
            <mxPoint x="610" y="580" as="targetPoint" />
            <Array as="points">
              <mxPoint x="650" y="560" />
              <mxPoint x="470" y="560" />
            </Array>
            <mxPoint as="offset" />
          </mxGeometry>
        </mxCell>
        <mxCell id="SU34hy9HO2EqzW-YyRAt-16" value="&lt;b&gt;&lt;font color=&quot;#666666&quot;&gt;Minion(~hasBall) OR Minion(ThrowBall)&lt;/font&gt;&lt;/b&gt;" style="html=1;verticalAlign=bottom;startArrow=oval;startFill=1;endArrow=block;startSize=8;fillColor=#1ba1e2;strokeColor=#006EAF;strokeWidth=3;exitX=0.5;exitY=1;exitDx=0;exitDy=0;entryX=0.25;entryY=1;entryDx=0;entryDy=0;" edge="1" parent="1" source="SU34hy9HO2EqzW-YyRAt-5" target="SU34hy9HO2EqzW-YyRAt-1">
          <mxGeometry x="-0.6364" width="60" relative="1" as="geometry">
            <mxPoint x="670" y="740" as="sourcePoint" />
            <mxPoint x="230" y="740" as="targetPoint" />
            <Array as="points">
              <mxPoint x="680" y="680" />
              <mxPoint x="130" y="680" />
            </Array>
            <mxPoint as="offset" />
          </mxGeometry>
        </mxCell>
        <mxCell id="SU34hy9HO2EqzW-YyRAt-17" value="&lt;b&gt;&lt;font color=&quot;#666666&quot;&gt;Prison(Empty)&lt;/font&gt;&lt;/b&gt;" style="html=1;verticalAlign=bottom;startArrow=oval;startFill=1;endArrow=block;startSize=8;fillColor=#1ba1e2;strokeColor=#006EAF;strokeWidth=3;exitX=0;exitY=0.5;exitDx=0;exitDy=0;entryX=1;entryY=0.5;entryDx=0;entryDy=0;" edge="1" parent="1" source="SU34hy9HO2EqzW-YyRAt-5" target="SU34hy9HO2EqzW-YyRAt-4">
          <mxGeometry x="-0.1304" width="60" relative="1" as="geometry">
            <mxPoint x="600" y="590" as="sourcePoint" />
            <mxPoint x="710" y="590" as="targetPoint" />
            <Array as="points" />
            <mxPoint as="offset" />
          </mxGeometry>
        </mxCell>
        <mxCell id="SU34hy9HO2EqzW-YyRAt-18" value="&lt;b&gt;&lt;font color=&quot;#666666&quot;&gt;Minion(~hasBall) OR Minion(ThrowBall)&lt;/font&gt;&lt;/b&gt;" style="html=1;verticalAlign=bottom;startArrow=oval;startFill=1;endArrow=block;startSize=8;fillColor=#1ba1e2;strokeColor=#006EAF;strokeWidth=3;exitX=0;exitY=0.5;exitDx=0;exitDy=0;entryX=0.5;entryY=1;entryDx=0;entryDy=0;" edge="1" parent="1" source="SU34hy9HO2EqzW-YyRAt-4" target="SU34hy9HO2EqzW-YyRAt-1">
          <mxGeometry x="-0.3714" width="60" relative="1" as="geometry">
            <mxPoint x="690" y="620" as="sourcePoint" />
            <mxPoint x="170" y="480" as="targetPoint" />
            <Array as="points">
              <mxPoint x="160" y="620" />
            </Array>
            <mxPoint as="offset" />
          </mxGeometry>
        </mxCell>
        <mxCell id="SU34hy9HO2EqzW-YyRAt-19" value="&lt;b&gt;&lt;font color=&quot;#666666&quot;&gt;Opponent(Empty)&lt;/font&gt;&lt;/b&gt;" style="html=1;verticalAlign=bottom;startArrow=oval;startFill=1;endArrow=block;startSize=8;fillColor=#1ba1e2;strokeColor=#006EAF;strokeWidth=3;exitX=0.5;exitY=0;exitDx=0;exitDy=0;entryX=0.5;entryY=1;entryDx=0;entryDy=0;" edge="1" parent="1" source="SU34hy9HO2EqzW-YyRAt-4" target="SU34hy9HO2EqzW-YyRAt-3">
          <mxGeometry x="-0.2" width="60" relative="1" as="geometry">
            <mxPoint x="610" y="600" as="sourcePoint" />
            <mxPoint x="495" y="600" as="targetPoint" />
            <Array as="points" />
            <mxPoint as="offset" />
          </mxGeometry>
        </mxCell>
        <mxCell id="SU34hy9HO2EqzW-YyRAt-20" value="&lt;b&gt;&lt;font color=&quot;#666666&quot;&gt;Minion(hasBall)&lt;/font&gt;&lt;/b&gt;" style="html=1;verticalAlign=bottom;startArrow=oval;startFill=1;endArrow=block;startSize=8;fillColor=#1ba1e2;strokeColor=#006EAF;strokeWidth=3;entryX=0;entryY=0.5;entryDx=0;entryDy=0;exitX=1;exitY=0.5;exitDx=0;exitDy=0;" edge="1" parent="1" source="SU34hy9HO2EqzW-YyRAt-3" target="SU34hy9HO2EqzW-YyRAt-2">
          <mxGeometry width="60" relative="1" as="geometry">
            <mxPoint x="490" y="450" as="sourcePoint" />
            <mxPoint x="652.5" y="465" as="targetPoint" />
          </mxGeometry>
        </mxCell>
        <mxCell id="SU34hy9HO2EqzW-YyRAt-21" value="&lt;b&gt;&lt;font color=&quot;#666666&quot;&gt;DodgeBall(Available)&lt;/font&gt;&lt;/b&gt;" style="html=1;verticalAlign=bottom;startArrow=oval;startFill=1;endArrow=block;startSize=8;fillColor=#1ba1e2;strokeColor=#006EAF;strokeWidth=3;exitX=0.25;exitY=1;exitDx=0;exitDy=0;entryX=0.75;entryY=1;entryDx=0;entryDy=0;" edge="1" parent="1" source="SU34hy9HO2EqzW-YyRAt-3" target="SU34hy9HO2EqzW-YyRAt-1">
          <mxGeometry x="-0.0196" width="60" relative="1" as="geometry">
            <mxPoint x="710" y="760" as="sourcePoint" />
            <mxPoint x="190" y="620" as="targetPoint" />
            <Array as="points">
              <mxPoint x="410" y="520" />
              <mxPoint x="190" y="520" />
            </Array>
            <mxPoint as="offset" />
          </mxGeometry>
        </mxCell>
        <mxCell id="SU34hy9HO2EqzW-YyRAt-22" value="&lt;b&gt;&lt;font color=&quot;#666666&quot;&gt;Minion(~isPrisoner)&lt;/font&gt;&lt;/b&gt;" style="html=1;verticalAlign=bottom;startArrow=oval;startFill=1;endArrow=block;startSize=8;fillColor=#1ba1e2;strokeColor=#006EAF;strokeWidth=3;exitX=1;exitY=0.5;exitDx=0;exitDy=0;entryX=0;entryY=0.5;entryDx=0;entryDy=0;" edge="1" parent="1" source="SU34hy9HO2EqzW-YyRAt-6" target="SU34hy9HO2EqzW-YyRAt-7">
          <mxGeometry x="-0.0769" width="60" relative="1" as="geometry">
            <mxPoint x="520" y="219.5" as="sourcePoint" />
            <mxPoint x="520" y="220" as="targetPoint" />
            <Array as="points" />
            <mxPoint as="offset" />
          </mxGeometry>
        </mxCell>
        <mxCell id="SU34hy9HO2EqzW-YyRAt-23" value="&lt;b&gt;&lt;font color=&quot;#666666&quot;&gt;Minion(hasBall)&lt;/font&gt;&lt;/b&gt;" style="html=1;verticalAlign=bottom;startArrow=oval;startFill=1;endArrow=block;startSize=8;fillColor=#1ba1e2;strokeColor=#006EAF;strokeWidth=3;exitX=1;exitY=0.5;exitDx=0;exitDy=0;entryX=0.75;entryY=0;entryDx=0;entryDy=0;" edge="1" parent="1" source="SU34hy9HO2EqzW-YyRAt-7" target="SU34hy9HO2EqzW-YyRAt-2">
          <mxGeometry x="-0.7094" width="60" relative="1" as="geometry">
            <mxPoint x="510" y="340" as="sourcePoint" />
            <mxPoint x="940" y="340" as="targetPoint" />
            <Array as="points">
              <mxPoint x="710" y="160" />
              <mxPoint x="710" y="260" />
            </Array>
            <mxPoint as="offset" />
          </mxGeometry>
        </mxCell>
        <mxCell id="SU34hy9HO2EqzW-YyRAt-24" value="&lt;b&gt;&lt;font color=&quot;#666666&quot;&gt;Minion(~hasBall)&lt;/font&gt;&lt;/b&gt;" style="html=1;verticalAlign=bottom;startArrow=oval;startFill=1;endArrow=block;startSize=8;fillColor=#1ba1e2;strokeColor=#006EAF;strokeWidth=3;exitX=0.5;exitY=1;exitDx=0;exitDy=0;" edge="1" parent="1" source="SU34hy9HO2EqzW-YyRAt-7" target="SU34hy9HO2EqzW-YyRAt-8">
          <mxGeometry x="0.2" width="60" relative="1" as="geometry">
            <mxPoint x="760" y="300" as="sourcePoint" />
            <mxPoint x="812.5" y="500" as="targetPoint" />
            <mxPoint as="offset" />
          </mxGeometry>
        </mxCell>
        <mxCell id="SU34hy9HO2EqzW-YyRAt-25" value="&lt;b&gt;&lt;font color=&quot;#666666&quot;&gt;Minion(reachedTarget)&lt;/font&gt;&lt;/b&gt;" style="html=1;verticalAlign=bottom;startArrow=oval;startFill=1;endArrow=block;startSize=8;fillColor=#1ba1e2;strokeColor=#006EAF;strokeWidth=3;entryX=0.25;entryY=0;entryDx=0;entryDy=0;exitX=0.5;exitY=1;exitDx=0;exitDy=0;" edge="1" parent="1" source="SU34hy9HO2EqzW-YyRAt-8" target="SU34hy9HO2EqzW-YyRAt-1">
          <mxGeometry x="-0.3605" width="60" relative="1" as="geometry">
            <mxPoint x="580" y="350" as="sourcePoint" />
            <mxPoint x="130" y="400" as="targetPoint" />
            <Array as="points">
              <mxPoint x="578" y="330" />
              <mxPoint x="130" y="330" />
            </Array>
            <mxPoint as="offset" />
          </mxGeometry>
        </mxCell>
        <mxCell id="SU34hy9HO2EqzW-YyRAt-26" value="&lt;b&gt;&lt;font color=&quot;#666666&quot;&gt;GameOver&lt;/font&gt;&lt;/b&gt;" style="html=1;verticalAlign=bottom;startArrow=oval;startFill=1;endArrow=block;startSize=8;fillColor=#1ba1e2;strokeColor=#006EAF;strokeWidth=3;exitX=1;exitY=0.5;exitDx=0;exitDy=0;entryX=0;entryY=0.5;entryDx=0;entryDy=0;" edge="1" parent="1" source="SU34hy9HO2EqzW-YyRAt-10" target="SU34hy9HO2EqzW-YyRAt-9">
          <mxGeometry width="60" relative="1" as="geometry">
            <mxPoint x="400" y="190" as="sourcePoint" />
            <mxPoint x="527.5" y="190" as="targetPoint" />
            <Array as="points" />
            <mxPoint as="offset" />
          </mxGeometry>
        </mxCell>
        <mxCell id="SU34hy9HO2EqzW-YyRAt-27" value="&lt;b&gt;&lt;font color=&quot;#666666&quot;&gt;Minion(isPrisoner)&lt;/font&gt;&lt;/b&gt;" style="html=1;verticalAlign=bottom;startArrow=oval;startFill=1;endArrow=block;startSize=8;fillColor=#1ba1e2;strokeColor=#006EAF;strokeWidth=3;exitX=0.5;exitY=0;exitDx=0;exitDy=0;entryX=0;entryY=0.5;entryDx=0;entryDy=0;" edge="1" parent="1" source="SU34hy9HO2EqzW-YyRAt-10" target="SU34hy9HO2EqzW-YyRAt-6">
          <mxGeometry x="0.25" width="60" relative="1" as="geometry">
            <mxPoint x="230" y="190" as="sourcePoint" />
            <mxPoint x="270" y="180" as="targetPoint" />
            <Array as="points">
              <mxPoint x="160" y="160" />
            </Array>
            <mxPoint as="offset" />
          </mxGeometry>
        </mxCell>
      </root>
    </mxGraphModel>
  </diagram>
</mxfile>
